<?xml version="1.0" encoding="UTF-8"?>
<svg width="860" height="1220" viewBox="0 0 860 1220" xmlns="http://www.w3.org/2000/svg" xmlns:xlink="http://www.w3.org/1999/xlink">
  <defs>
    <filter id="cardShadow" filterUnits="objectBoundingBox" x="-5%" y="-3%" width="110%" height="112%">
      <feDropShadow dx="2" dy="4" stdDeviation="6" flood-color="#000" flood-opacity="0.18"/>
    </filter>
    <pattern id="grid" width="40" height="40" patternUnits="userSpaceOnUse">
      <path d="M 40 0 L 0 0 0 40" fill="none" stroke="#CBD2DC" stroke-width="0.5" opacity="0.5"/>
    </pattern>
  </defs>

  <!-- Background -->
  <rect width="860" height="1220" fill="#F0F3F8"/>
  <rect width="860" height="1220" fill="url(#grid)"/>

  <!-- Cluster watermark -->
  <clipPath id="clusterClip"><rect x="0" y="300" width="1400" height="1100"/></clipPath>
  <g clip-path="url(#clusterClip)">
    <g transform="translate(-180, 280) scale(0.82)" opacity="1">
      <path fill="#e6ebf2" stroke="none" d="M 4 425.22998 L 5.720001 482.030029 C 5.829987 485.840027 6.320007 489.619995 7.23999 493.320007 C 12.230011 513.349976 34.070007 569.890015 124.719971 600.109985 L 144.27002 600.109985 L 144.27002 543.969971 C 144.27002 543.969971 54.829987 516.960022 47.140015 482.640015 C 39.450012 448.309998 17.940002 421.309998 17.940002 421.309998 L 4.01001 425.23999 Z"/>
      <path fill="#f5f7fa" stroke="#1c1e23" stroke-width="2" d="M 173.219971 259.48999 C 173.219971 259.48999 12.859985 288.839966 4.269989 419.530029 C -1.700012 510.390015 91.920013 548.969971 130.099976 561.289978 C 130.099976 561.289978 64.779999 798.349976 386.320007 837.589966 C 617.329956 865.790039 717.530029 740.840027 717.530029 740.840027 C 717.530029 740.840027 856.069946 792.440002 941.449951 737.799988 C 1026.829956 683.150024 1014.880005 606.030029 1014.880005 606.030029 C 1014.880005 606.030029 1142.949951 568.73999 1178.819946 474.820007 C 1214.680054 380.900024 1107.099976 327.640015 1049.040039 303.909973 C 1049.040039 303.909973 1112.369995 140.219971 922.670044 65.820007 C 659.920044 -37.219971 475.059998 122.969971 475.059998 122.969971 C 475.059998 122.969971 389.640015 64.630005 264.72998 116.820007 C 152.440002 163.73999 173.219971 259.48999 173.219971 259.48999 Z"/>
      <path fill="none" stroke="#1c1e23" stroke-width="2" d="M 218.280029 251.5 L 391.76001 282.429993 L 454.109985 148.829956 C 454.109985 148.829956 377.940002 102.829956 291.390015 140.690002 C 200.030029 180.650024 218.289978 251.5 218.289978 251.5 Z"/>
      <path fill="none" stroke="#1c1e23" stroke-width="2" d="M 226.059998 252.890015 C 226.059998 252.890015 278.599976 140.530029 436.130005 187.339966"/>
      <path fill="none" stroke="#1c1e23" stroke-width="2" d="M 428.070007 384.669983 L 390.369995 315.72998 L 196.690002 282.429993 C 196.690002 282.429993 33.809998 322.02002 48.01001 430.25 C 59.230011 515.77002 154.090027 531.679993 154.090027 531.679993 L 428.070007 384.669983 Z"/>
      <path fill="none" stroke="#1c1e23" stroke-width="2" d="M 51.700012 447.700012 C 51.700012 447.700012 87.730011 341.070007 210.890015 330.080017 L 395.809998 362.169983 L 412.619995 392.969971"/>
      <path fill="none" stroke="#1c1e23" stroke-width="2" d="M 476.070007 376.150024 L 432.97998 298.76001 L 499.929993 145.209961 C 499.929993 145.209961 640.650024 42.630005 797.01001 66.089966 C 953.369995 89.540039 1046.099976 194.089966 1007.890015 299.070007 L 722.319946 454.72998 L 476.080017 376.159973 Z"/>
      <path fill="none" stroke="#1c1e23" stroke-width="2" d="M 178.280029 559.549988 L 454.109985 403.190002 L 706.949951 491.150024 L 754.569946 559.539978 L 693.140015 715.900024 C 693.140015 715.900024 515.440002 849.5 324.580017 786.640015 C 170.5 735.890015 153.700012 631.02002 178.27002 559.549988 Z"/>
      <path fill="none" stroke="#1c1e23" stroke-width="2" d="M 794.77002 545.030029 L 754.560059 484.330017 L 1028.189941 332.830017 C 1028.189941 332.830017 1180.969971 387.890015 1127.589966 484.330017 C 1074.199951 580.77002 987.98999 579.650024 987.98999 579.650024 L 794.780029 545.030029 Z"/>
      <path fill="none" stroke="#1c1e23" stroke-width="2" d="M 794.77002 579.650024 L 966.76001 609.630005 L 971.22998 652.23999 C 971.22998 652.23999 909.130005 784.429993 741.23999 717.349976 L 794.77002 579.640015 Z"/>
      <path fill="none" stroke="#1c1e23" stroke-width="2" d="M 971.22998 654.820007 L 796.369995 628.289978 L 754.560059 722.349976"/>
      <path fill="none" stroke="#1c1e23" stroke-width="2" d="M 172.27002 645.530029 L 187 597.030029 L 460.619995 452.150024 L 710.920044 533.570007 L 743.369995 588.049988"/>
      <path fill="none" stroke="#1c1e23" stroke-width="2" d="M 445.659973 321.539978 L 504.52002 190.400024 C 504.52002 190.400024 624.780029 96.900024 781.410034 111.52002 C 922.920044 124.719971 992.319946 191.410034 1016.459961 252.880005"/>
      <path fill="none" stroke="#1c1e23" stroke-width="2" d="M 4 425.22998 L 5.720001 482.030029 C 5.829987 485.840027 6.320007 489.619995 7.23999 493.320007 C 12.230011 513.349976 34.070007 569.890015 124.719971 600.109985"/>
      <path fill="none" stroke="#1c1e23" stroke-width="2" d="M 124.719971 626.789978 C 124.719971 626.789978 127.97998 692.320007 134.340027 709.549988 C 140.700012 726.780029 175.349976 858.97998 387.210022 877.550049 C 599.070007 896.119995 719.420044 789.320007 719.420044 789.320007 C 719.420044 789.320007 817.689941 833.650024 886.060059 809.179993 C 954.430054 784.710022 1017.72998 742.5 1020.27002 678.349976 L 1014.900024 606.039978"/>
    </g>
  </g>

  <!-- Radiating lines -->
  <g opacity="0.12">
    <line x1="860" y1="1220" x2="560" y2="920" stroke="#CBD2DC" stroke-width="1"/>
    <line x1="860" y1="1220" x2="620" y2="890" stroke="#CBD2DC" stroke-width="1"/>
    <line x1="860" y1="1220" x2="680" y2="870" stroke="#CBD2DC" stroke-width="1"/>
    <line x1="860" y1="1220" x2="740" y2="870" stroke="#CBD2DC" stroke-width="1"/>
    <line x1="860" y1="1220" x2="790" y2="890" stroke="#CBD2DC" stroke-width="1"/>
    <line x1="860" y1="1220" x2="830" y2="920" stroke="#CBD2DC" stroke-width="1"/>
    <line x1="860" y1="1220" x2="500" y2="990" stroke="#CBD2DC" stroke-width="1"/>
    <line x1="860" y1="1220" x2="450" y2="1050" stroke="#CBD2DC" stroke-width="1"/>
  </g>

  <!-- ===================== TITLE ===================== -->
  <text x="36" y="62" font-family="Inter, system-ui, -apple-system, sans-serif" font-size="48" font-weight="900" fill="#1C1E23" letter-spacing="-1">Monitor Claude Code</text>
  <text x="36" y="116" font-family="Inter, system-ui, -apple-system, sans-serif" font-size="48" font-weight="900" fill="#1C1E23" letter-spacing="-1">with Elastic</text>
  <text x="36" y="155" font-family="Inter, system-ui, -apple-system, sans-serif" font-size="16.5" fill="#3D4250">Send metrics, logs, and traces from Claude Code to Elastic Cloud using</text>
  <text x="36" y="177" font-family="Inter, system-ui, -apple-system, sans-serif" font-size="16.5" fill="#3D4250">built-in OpenTelemetry. No collector or sidecar needed — direct OTLP export.</text>

  <!-- ===================== CARD 1: SETUP ===================== -->
  <g transform="translate(36, 206)">
    <rect x="0" y="0" width="788" height="350" rx="10" fill="white" stroke="#8B95A5" stroke-width="2" filter="url(#cardShadow)"/>
    <rect x="12" y="-15" width="260" height="30" rx="5" fill="white" stroke="#8B95A5" stroke-width="1.5"/>
    <rect x="12" y="-15" width="260" height="5" rx="5" fill="#FEC514"/>
    <rect x="12" y="-10" width="260" height="3" fill="#FEC514"/>
    <text x="22" y="6" font-family="Inter, system-ui, -apple-system, sans-serif" font-size="11.5" font-weight="700" fill="#1C1E23" letter-spacing="2.2">SETUP · ENABLE TELEMETRY</text>

    <!-- Intro -->
    <text x="24" y="40" font-family="Inter, system-ui, -apple-system, sans-serif" font-size="15.5" fill="#3D4250"><tspan font-weight="700" fill="#1C1E23">Add env vars to </tspan><tspan font-family="'Space Mono', 'JetBrains Mono', monospace" font-size="13" fill="#0B64DD">~/.claude/settings.json</tspan></text>

    <!-- Bullets -->
    <text x="24" y="70" font-family="Inter, system-ui, -apple-system, sans-serif" font-size="14" fill="#3D4250"><tspan fill="#5A6068">•</tspan> <tspan font-family="'Space Mono', 'JetBrains Mono', monospace" font-size="12" fill="#0B64DD">ENABLE_TELEMETRY=1</tspan></text>
    <text x="36" y="88" font-family="Inter, system-ui, -apple-system, sans-serif" font-size="14" fill="#3D4250">activates all telemetry</text>
    <text x="24" y="114" font-family="Inter, system-ui, -apple-system, sans-serif" font-size="14" fill="#3D4250"><tspan fill="#5A6068">•</tspan> <tspan font-family="'Space Mono', 'JetBrains Mono', monospace" font-size="12" fill="#0B64DD">ENHANCED_TELEMETRY_BETA=1</tspan></text>
    <text x="36" y="132" font-family="Inter, system-ui, -apple-system, sans-serif" font-size="14" fill="#3D4250">enables distributed traces (beta)</text>
    <text x="24" y="158" font-family="Inter, system-ui, -apple-system, sans-serif" font-size="14" fill="#3D4250"><tspan fill="#5A6068">•</tspan> Set all three exporters to <tspan font-family="'Space Mono', 'JetBrains Mono', monospace" font-size="12" fill="#0B64DD">otlp</tspan></text>
    <text x="24" y="182" font-family="Inter, system-ui, -apple-system, sans-serif" font-size="14" fill="#3D4250"><tspan fill="#5A6068">•</tspan> Use <tspan font-family="'Space Mono', 'JetBrains Mono', monospace" font-size="12" fill="#0B64DD">http/protobuf</tspan> protocol</text>
    <text x="24" y="206" font-family="Inter, system-ui, -apple-system, sans-serif" font-size="14" fill="#3D4250"><tspan fill="#5A6068">•</tspan> Endpoint = your Elastic OTLP URL</text>
    <text x="24" y="230" font-family="Inter, system-ui, -apple-system, sans-serif" font-size="14" fill="#3D4250"><tspan fill="#5A6068">•</tspan> Auth via API key in headers</text>

    <!-- Code block: font-size 11, char-width ~6.6px. base=354, +2sp=367, +4sp=380, +8sp=407 -->
    <rect x="340" y="28" width="434" height="292" rx="8" fill="#1C1E23"/>
    <text x="354" y="48" font-family="'Space Mono', 'JetBrains Mono', monospace" font-size="11" fill="#5A6068">{</text>
    <text x="367" y="65" font-family="'Space Mono', 'JetBrains Mono', monospace" font-size="11"><tspan fill="#0B64DD">"env"</tspan><tspan fill="#5A6068">: {</tspan></text>
    <text x="380" y="82" font-family="'Space Mono', 'JetBrains Mono', monospace" font-size="11"><tspan fill="#0B64DD">"CLAUDE_CODE_ENABLE_TELEMETRY"</tspan><tspan fill="#5A6068">: </tspan><tspan fill="#36B37E">"1"</tspan><tspan fill="#5A6068">,</tspan></text>
    <text x="380" y="99" font-family="'Space Mono', 'JetBrains Mono', monospace" font-size="11"><tspan fill="#0B64DD">"OTEL_METRICS_EXPORTER"</tspan><tspan fill="#5A6068">: </tspan><tspan fill="#36B37E">"otlp"</tspan><tspan fill="#5A6068">,</tspan></text>
    <text x="380" y="116" font-family="'Space Mono', 'JetBrains Mono', monospace" font-size="11"><tspan fill="#0B64DD">"OTEL_LOGS_EXPORTER"</tspan><tspan fill="#5A6068">: </tspan><tspan fill="#36B37E">"otlp"</tspan><tspan fill="#5A6068">,</tspan></text>
    <text x="380" y="133" font-family="'Space Mono', 'JetBrains Mono', monospace" font-size="11"><tspan fill="#0B64DD">"OTEL_TRACES_EXPORTER"</tspan><tspan fill="#5A6068">: </tspan><tspan fill="#36B37E">"otlp"</tspan><tspan fill="#5A6068">,</tspan></text>
    <text x="380" y="150" font-family="'Space Mono', 'JetBrains Mono', monospace" font-size="11"><tspan fill="#0B64DD">"CLAUDE_CODE_ENHANCED_TELEMETRY_BETA"</tspan><tspan fill="#5A6068">:</tspan></text>
    <text x="407" y="167" font-family="'Space Mono', 'JetBrains Mono', monospace" font-size="11"><tspan fill="#36B37E">"1"</tspan><tspan fill="#5A6068">,</tspan></text>
    <text x="380" y="184" font-family="'Space Mono', 'JetBrains Mono', monospace" font-size="11"><tspan fill="#0B64DD">"OTEL_EXPORTER_OTLP_PROTOCOL"</tspan><tspan fill="#5A6068">:</tspan></text>
    <text x="407" y="201" font-family="'Space Mono', 'JetBrains Mono', monospace" font-size="11"><tspan fill="#36B37E">"http/protobuf"</tspan><tspan fill="#5A6068">,</tspan></text>
    <text x="380" y="218" font-family="'Space Mono', 'JetBrains Mono', monospace" font-size="11"><tspan fill="#0B64DD">"OTEL_EXPORTER_OTLP_ENDPOINT"</tspan><tspan fill="#5A6068">:</tspan></text>
    <text x="407" y="235" font-family="'Space Mono', 'JetBrains Mono', monospace" font-size="11"><tspan fill="#36B37E">"https://&lt;elastic-endpoint&gt;"</tspan><tspan fill="#5A6068">,</tspan></text>
    <text x="380" y="252" font-family="'Space Mono', 'JetBrains Mono', monospace" font-size="11"><tspan fill="#0B64DD">"OTEL_EXPORTER_OTLP_HEADERS"</tspan><tspan fill="#5A6068">:</tspan></text>
    <text x="407" y="269" font-family="'Space Mono', 'JetBrains Mono', monospace" font-size="11"><tspan fill="#36B37E">"Authorization=ApiKey &lt;key&gt;"</tspan><tspan fill="#5A6068">,</tspan></text>
    <text x="380" y="286" font-family="'Space Mono', 'JetBrains Mono', monospace" font-size="11"><tspan fill="#0B64DD">"OTEL_SERVICE_NAME"</tspan><tspan fill="#5A6068">: </tspan><tspan fill="#36B37E">"claude-code"</tspan></text>
    <text x="367" y="300" font-family="'Space Mono', 'JetBrains Mono', monospace" font-size="11" fill="#5A6068">}</text>
    <text x="354" y="314" font-family="'Space Mono', 'JetBrains Mono', monospace" font-size="11" fill="#5A6068">}</text>

    <!-- Footer -->
    <line x1="0" y1="324" x2="788" y2="324" stroke="#D3DAE6" stroke-width="1"/>
    <text x="14" y="342" font-family="'Space Mono', 'JetBrains Mono', monospace" font-size="12" font-weight="700" fill="#5A6068" letter-spacing="1.5">~/.claude/settings.json</text>
    <text x="774" y="342" font-family="'Space Mono', 'JetBrains Mono', monospace" font-size="12" font-weight="700" fill="#5A6068" letter-spacing="1.5" text-anchor="end">DIRECT OTLP</text>
  </g>

  <!-- ===================== CARD 2: METRICS ===================== -->
  <g transform="translate(36, 601)">
    <rect x="0" y="0" width="384" height="278" rx="10" fill="white" stroke="#8B95A5" stroke-width="2" filter="url(#cardShadow)"/>
    <rect x="12" y="-15" width="218" height="30" rx="5" fill="white" stroke="#8B95A5" stroke-width="1.5"/>
    <rect x="12" y="-15" width="218" height="5" rx="5" fill="#48EFCF"/>
    <rect x="12" y="-10" width="218" height="3" fill="#48EFCF"/>
    <text x="22" y="6" font-family="Inter, system-ui, -apple-system, sans-serif" font-size="11.5" font-weight="700" fill="#1C1E23" letter-spacing="2.2">METRICS · WHAT YOU GET</text>

    <text x="18" y="36" font-family="Inter, system-ui, -apple-system, sans-serif" font-size="15.5" fill="#3D4250"><tspan font-weight="700" fill="#1C1E23">Auto-exported.</tspan> All prefixed with</text>
    <text x="18" y="54" font-family="Inter, system-ui, -apple-system, sans-serif" font-size="15.5" fill="#3D4250"><tspan font-family="'Space Mono', 'JetBrains Mono', monospace" font-size="12" fill="#0B64DD">claude_code.</tspan></text>

    <text x="18" y="80" font-family="'Space Mono', 'JetBrains Mono', monospace" font-size="11.5" fill="#0B64DD">cost.usage</text>
    <text x="170" y="80" font-family="Inter, system-ui, sans-serif" font-size="13" fill="#3D4250">Cost per request (USD)</text>
    <text x="18" y="100" font-family="'Space Mono', 'JetBrains Mono', monospace" font-size="11.5" fill="#0B64DD">token.usage</text>
    <text x="170" y="100" font-family="Inter, system-ui, sans-serif" font-size="13" fill="#3D4250">Tokens (in/out/cache)</text>
    <text x="18" y="120" font-family="'Space Mono', 'JetBrains Mono', monospace" font-size="11.5" fill="#0B64DD">session.count</text>
    <text x="170" y="120" font-family="Inter, system-ui, sans-serif" font-size="13" fill="#3D4250">Sessions started</text>
    <text x="18" y="140" font-family="'Space Mono', 'JetBrains Mono', monospace" font-size="11.5" fill="#0B64DD">lines_of_code.count</text>
    <text x="170" y="140" font-family="Inter, system-ui, sans-serif" font-size="13" fill="#3D4250">Lines added/removed</text>
    <text x="18" y="160" font-family="'Space Mono', 'JetBrains Mono', monospace" font-size="11.5" fill="#0B64DD">commit.count</text>
    <text x="170" y="160" font-family="Inter, system-ui, sans-serif" font-size="13" fill="#3D4250">Git commits created</text>
    <text x="18" y="180" font-family="'Space Mono', 'JetBrains Mono', monospace" font-size="11.5" fill="#0B64DD">pull_request.count</text>
    <text x="170" y="180" font-family="Inter, system-ui, sans-serif" font-size="13" fill="#3D4250">PRs created</text>
    <text x="18" y="200" font-family="'Space Mono', 'JetBrains Mono', monospace" font-size="11.5" fill="#0B64DD">active_time.total</text>
    <text x="170" y="200" font-family="Inter, system-ui, sans-serif" font-size="13" fill="#3D4250">Active time (seconds)</text>

    <rect x="18" y="216" width="348" height="26" rx="4" fill="#F8F9FC" stroke="#D3DAE6" stroke-width="1"/>
    <text x="28" y="234" font-family="Inter, system-ui, sans-serif" font-size="11.5" fill="#5A6068">Attrs: <tspan font-family="'Space Mono', 'JetBrains Mono', monospace" font-size="10.5" fill="#0B64DD">session.id</tspan>, <tspan font-family="'Space Mono', 'JetBrains Mono', monospace" font-size="10.5" fill="#0B64DD">user.id</tspan>, <tspan font-family="'Space Mono', 'JetBrains Mono', monospace" font-size="10.5" fill="#0B64DD">model</tspan></text>

    <line x1="0" y1="250" x2="384" y2="250" stroke="#D3DAE6" stroke-width="1"/>
    <text x="14" y="268" font-family="'Space Mono', 'JetBrains Mono', monospace" font-size="12" font-weight="700" fill="#5A6068" letter-spacing="1.5">7 METRICS</text>
    <text x="370" y="268" font-family="'Space Mono', 'JetBrains Mono', monospace" font-size="12" font-weight="700" fill="#5A6068" letter-spacing="1.5" text-anchor="end">AUTO</text>
  </g>

  <!-- ===================== CARD 3: EVENTS ===================== -->
  <g transform="translate(440, 601)">
    <rect x="0" y="0" width="384" height="278" rx="10" fill="white" stroke="#8B95A5" stroke-width="2" filter="url(#cardShadow)"/>
    <rect x="12" y="-15" width="230" height="30" rx="5" fill="white" stroke="#8B95A5" stroke-width="1.5"/>
    <rect x="12" y="-15" width="230" height="5" rx="5" fill="#FF957D"/>
    <rect x="12" y="-10" width="230" height="3" fill="#FF957D"/>
    <text x="22" y="6" font-family="Inter, system-ui, -apple-system, sans-serif" font-size="11.5" font-weight="700" fill="#1C1E23" letter-spacing="2.2">EVENTS · ACTIVITY LOG</text>

    <text x="18" y="36" font-family="Inter, system-ui, -apple-system, sans-serif" font-size="15.5" fill="#3D4250"><tspan font-weight="700" fill="#1C1E23">Structured log events</tspan> for every</text>
    <text x="18" y="54" font-family="Inter, system-ui, -apple-system, sans-serif" font-size="15.5" fill="#3D4250">action via the logs exporter.</text>

    <text x="18" y="80" font-family="Inter, system-ui, -apple-system, sans-serif" font-size="14" fill="#3D4250"><tspan fill="#5A6068">•</tspan> <tspan font-family="'Space Mono', 'JetBrains Mono', monospace" font-size="12" fill="#0B64DD">user_prompt</tspan> — each prompt</text>
    <text x="18" y="102" font-family="Inter, system-ui, -apple-system, sans-serif" font-size="14" fill="#3D4250"><tspan fill="#5A6068">•</tspan> <tspan font-family="'Space Mono', 'JetBrains Mono', monospace" font-size="12" fill="#0B64DD">api_request</tspan> — model, cost, tokens</text>
    <text x="18" y="124" font-family="Inter, system-ui, -apple-system, sans-serif" font-size="14" fill="#3D4250"><tspan fill="#5A6068">•</tspan> <tspan font-family="'Space Mono', 'JetBrains Mono', monospace" font-size="12" fill="#0B64DD">tool_result</tspan> — execution + timing</text>
    <text x="18" y="146" font-family="Inter, system-ui, -apple-system, sans-serif" font-size="14" fill="#3D4250"><tspan fill="#5A6068">•</tspan> <tspan font-family="'Space Mono', 'JetBrains Mono', monospace" font-size="12" fill="#0B64DD">tool_decision</tspan> — accept/reject</text>
    <text x="18" y="168" font-family="Inter, system-ui, -apple-system, sans-serif" font-size="14" fill="#3D4250"><tspan fill="#5A6068">•</tspan> <tspan font-family="'Space Mono', 'JetBrains Mono', monospace" font-size="12" fill="#0B64DD">api_error</tspan> — failures + status codes</text>

    <rect x="18" y="188" width="348" height="48" rx="4" fill="#F8F9FC" stroke="#D3DAE6" stroke-width="1"/>
    <text x="28" y="208" font-family="Inter, system-ui, sans-serif" font-size="12" fill="#5A6068">Enable <tspan font-family="'Space Mono', 'JetBrains Mono', monospace" font-size="11" fill="#0B64DD">OTEL_LOG_TOOL_DETAILS=1</tspan></text>
    <text x="28" y="226" font-family="Inter, system-ui, sans-serif" font-size="12" fill="#5A6068">for Bash cmds, MCP info, and file paths.</text>

    <line x1="0" y1="250" x2="384" y2="250" stroke="#D3DAE6" stroke-width="1"/>
    <text x="14" y="268" font-family="'Space Mono', 'JetBrains Mono', monospace" font-size="12" font-weight="700" fill="#5A6068" letter-spacing="1.5">5 EVENT TYPES</text>
    <text x="370" y="268" font-family="'Space Mono', 'JetBrains Mono', monospace" font-size="12" font-weight="700" fill="#5A6068" letter-spacing="1.5" text-anchor="end">LOGS</text>
  </g>

  <!-- ===================== CARD 4: TRACES ===================== -->
  <g transform="translate(36, 924)">
    <rect x="0" y="0" width="384" height="238" rx="10" fill="white" stroke="#8B95A5" stroke-width="2" filter="url(#cardShadow)"/>
    <rect x="12" y="-15" width="282" height="30" rx="5" fill="white" stroke="#8B95A5" stroke-width="1.5"/>
    <rect x="12" y="-15" width="282" height="5" rx="5" fill="#F04E98"/>
    <rect x="12" y="-10" width="282" height="3" fill="#F04E98"/>
    <text x="22" y="6" font-family="Inter, system-ui, -apple-system, sans-serif" font-size="11.5" font-weight="700" fill="#1C1E23" letter-spacing="2.2">TRACES · VISIBILITY (BETA)</text>

    <text x="18" y="36" font-family="Inter, system-ui, -apple-system, sans-serif" font-size="15.5" fill="#3D4250"><tspan font-weight="700" fill="#1C1E23">Each prompt becomes a trace.</tspan></text>
    <text x="18" y="54" font-family="Inter, system-ui, -apple-system, sans-serif" font-size="15.5" fill="#3D4250">Spans link prompts → API → tools.</text>

    <!-- Tree diagram -->
    <rect x="18" y="68" width="348" height="106" rx="6" fill="#1C1E23"/>
    <text x="28" y="88" font-family="'Space Mono', 'JetBrains Mono', monospace" font-size="11.5" fill="#48EFCF">interaction</text>
    <text x="28" y="106" font-family="'Space Mono', 'JetBrains Mono', monospace" font-size="11.5"><tspan fill="#5A6068">├── </tspan><tspan fill="#45A8FF">llm_request</tspan></text>
    <text x="28" y="124" font-family="'Space Mono', 'JetBrains Mono', monospace" font-size="11.5"><tspan fill="#5A6068">└── </tspan><tspan fill="#F04E98">tool</tspan></text>
    <text x="28" y="142" font-family="'Space Mono', 'JetBrains Mono', monospace" font-size="11.5"><tspan fill="#5A6068">    ├── </tspan><tspan fill="#FEC514">blocked_on_user</tspan></text>
    <text x="28" y="160" font-family="'Space Mono', 'JetBrains Mono', monospace" font-size="11.5"><tspan fill="#5A6068">    └── </tspan><tspan fill="#9ADC30">execution</tspan></text>

    <text x="18" y="196" font-family="Inter, system-ui, -apple-system, sans-serif" font-size="13" fill="#3D4250">Subagent spans nest under parent tools.</text>
    <text x="18" y="212" font-family="Inter, system-ui, -apple-system, sans-serif" font-size="13" fill="#3D4250">Bash inherits <tspan font-family="'Space Mono', 'JetBrains Mono', monospace" font-size="11" fill="#0B64DD">TRACEPARENT</tspan> for distributed tracing.</text>

    <line x1="0" y1="224" x2="384" y2="224" stroke="#D3DAE6" stroke-width="1"/>
    <text x="370" y="236" font-family="'Space Mono', 'JetBrains Mono', monospace" font-size="11" font-weight="700" fill="#5A6068" letter-spacing="1.5" text-anchor="end">BETA</text>
  </g>

  <!-- ===================== CARD 5: TUNE ===================== -->
  <g transform="translate(440, 924)">
    <rect x="0" y="0" width="384" height="238" rx="10" fill="white" stroke="#8B95A5" stroke-width="2" filter="url(#cardShadow)"/>
    <rect x="12" y="-15" width="196" height="30" rx="5" fill="white" stroke="#8B95A5" stroke-width="1.5"/>
    <rect x="12" y="-15" width="196" height="5" rx="5" fill="#0B64DD"/>
    <rect x="12" y="-10" width="196" height="3" fill="#0B64DD"/>
    <text x="22" y="6" font-family="Inter, system-ui, -apple-system, sans-serif" font-size="11.5" font-weight="700" fill="#1C1E23" letter-spacing="2.2">TUNE YOUR SETUP</text>

    <text x="18" y="36" font-family="Inter, system-ui, -apple-system, sans-serif" font-size="15.5" fill="#3D4250"><tspan font-weight="700" fill="#1C1E23">Optional settings</tspan> for fine-tuning.</text>
    <text x="18" y="54" font-family="Inter, system-ui, -apple-system, sans-serif" font-size="15.5" fill="#3D4250">All use <tspan font-family="'Space Mono', 'JetBrains Mono', monospace" font-size="12" fill="#0B64DD">OTEL_</tspan> prefix.</text>

    <text x="18" y="80" font-family="'Space Mono', 'JetBrains Mono', monospace" font-size="11" fill="#0B64DD">METRIC_EXPORT_INTERVAL=10000</text>
    <text x="18" y="96" font-family="Inter, system-ui, sans-serif" font-size="13" fill="#3D4250">→ Faster metrics (default 60s)</text>

    <text x="18" y="118" font-family="'Space Mono', 'JetBrains Mono', monospace" font-size="11" fill="#0B64DD">LOG_USER_PROMPTS=1</text>
    <text x="18" y="134" font-family="Inter, system-ui, sans-serif" font-size="13" fill="#3D4250">→ Include prompt text in events</text>

    <text x="18" y="156" font-family="'Space Mono', 'JetBrains Mono', monospace" font-size="11" fill="#0B64DD">LOG_TOOL_DETAILS=1</text>
    <text x="18" y="172" font-family="Inter, system-ui, sans-serif" font-size="13" fill="#3D4250">→ Include command details</text>

    <text x="18" y="194" font-family="'Space Mono', 'JetBrains Mono', monospace" font-size="11" fill="#0B64DD">RESOURCE_ATTRIBUTES="team=eng"</text>
    <text x="18" y="210" font-family="Inter, system-ui, sans-serif" font-size="13" fill="#3D4250">→ Add custom labels to all signals</text>

    <line x1="0" y1="224" x2="384" y2="224" stroke="#D3DAE6" stroke-width="1"/>
    <text x="370" y="236" font-family="'Space Mono', 'JetBrains Mono', monospace" font-size="11" font-weight="700" fill="#5A6068" letter-spacing="1.5" text-anchor="end">OPTIONAL</text>
  </g>

  <!-- ===================== FOOTER ===================== -->
  <g transform="translate(0, 1176)">
    <line x1="36" y1="0" x2="824" y2="0" stroke="#D3DAE6" stroke-width="1"/>
    <text x="36" y="28" font-family="'Space Mono', 'JetBrains Mono', monospace" font-size="10.5" font-weight="700" fill="#98A2B3" letter-spacing="1.5">SOURCE</text>
    <text x="105" y="28" font-family="Inter, system-ui, sans-serif" font-size="11" fill="#98A2B3"> · </text>
    <text x="118" y="28" font-family="'Space Mono', 'JetBrains Mono', monospace" font-size="12" fill="#3D4250">code.claude.com/docs/en/monitoring-usage</text>
    <!-- Elastic logo -->
    <g transform="translate(740, -2) scale(0.16)">
      <path d="M232.957 153.223C232.971 147.219 231.128 141.358 227.681 136.442C224.234 131.526 219.352 127.797 213.703 125.764C214.217 123.144 214.476 120.48 214.476 117.809C214.481 108.971 211.684 100.358 206.485 93.2094C201.286 86.061 193.955 80.7452 185.545 78.0262C177.135 75.3072 168.079 75.3251 159.679 78.0774C151.28 80.8296 143.97 86.1744 138.8 93.3433C134.985 90.3875 130.311 88.7553 125.486 88.6939C120.661 88.6325 115.947 90.1454 112.059 93.0033C108.17 95.8612 105.32 99.9085 103.938 104.532C102.556 109.156 102.718 114.103 104.401 118.626C98.7383 120.69 93.8436 124.439 90.3751 129.368C86.9067 134.297 85.0309 140.17 85.0001 146.197C84.9844 152.221 86.8366 158.103 90.3018 163.031C93.767 167.959 98.6748 171.692 104.349 173.716C103.847 176.335 103.591 178.995 103.584 181.662C103.576 190.49 106.371 199.094 111.568 206.231C116.764 213.368 124.093 218.671 132.497 221.374C140.902 224.077 149.948 224.042 158.331 221.272C166.714 218.503 174 213.142 179.141 205.964C182.944 208.928 187.61 210.57 192.43 210.642C197.251 210.714 201.964 209.212 205.854 206.363C209.744 203.515 212.599 199.475 213.986 194.858C215.373 190.24 215.216 185.296 213.539 180.776C219.205 178.716 224.103 174.968 227.573 170.039C231.043 165.109 232.92 159.234 232.949 153.206" fill="white"/>
      <path d="M143.168 139.48L175.546 154.263L208.225 125.643C208.695 123.282 208.929 120.879 208.921 118.471C208.92 110.676 206.423 103.085 201.797 96.8108C197.171 90.5362 190.658 85.907 183.211 83.6003C175.765 81.2937 167.775 81.4308 160.412 83.9917C153.049 86.5525 146.699 91.4026 142.291 97.8322L136.848 125.987L143.168 139.48Z" fill="#FEC514"/>
      <path d="M109.655 173.767C109.178 176.166 108.939 178.606 108.941 181.051C108.942 188.879 111.451 196.501 116.101 202.798C120.752 209.095 127.298 213.736 134.78 216.039C142.261 218.342 150.284 218.186 157.671 215.594C165.057 213.003 171.419 208.112 175.821 201.639L181.213 173.544L174.015 159.784L141.517 144.976L109.655 173.767Z" fill="#02BCB7"/>
      <path d="M109.457 117.74L131.644 122.978L136.503 97.7463C133.485 95.458 129.808 94.2088 126.02 94.1857C122.233 94.1627 118.541 95.367 115.495 97.6184C112.45 99.8698 110.216 103.047 109.127 106.674C108.039 110.302 108.155 114.184 109.457 117.74Z" fill="#F04E98"/>
      <path d="M107.531 123.021C102.663 124.663 98.4279 127.782 95.4147 131.944C92.4015 136.105 90.7601 141.102 90.7188 146.24C90.7153 151.205 92.2231 156.054 95.0419 160.141C97.8607 164.229 101.857 167.362 106.499 169.123L137.63 140.985L131.911 128.774L107.531 123.021Z" fill="#45A8FF"/>
      <path d="M181.514 201.639C184.527 203.916 188.196 205.157 191.972 205.177C195.748 205.197 199.43 203.995 202.467 201.75C205.503 199.506 207.733 196.339 208.822 192.723C209.911 189.107 209.801 185.236 208.508 181.688L186.339 176.528L181.514 201.639Z" fill="#9ADC30"/>
      <path d="M186.02 170.689L210.426 176.39C215.297 174.752 219.535 171.634 222.549 167.472C225.563 163.309 227.202 158.31 227.239 153.171C227.234 148.216 225.723 143.38 222.906 139.304C220.09 135.227 216.1 132.104 211.467 130.348L179.545 158.296L186.02 170.689Z" fill="#0B64DD"/>
      <path d="M291.873 179.546L294.832 179.245L295.038 185.265C288.455 186.259 281.812 186.805 275.156 186.899C267.817 186.899 262.617 184.775 259.556 180.526C256.494 176.278 254.966 169.668 254.972 160.696C254.972 142.826 262.075 133.888 276.282 133.882C283.162 133.882 288.293 135.803 291.676 139.644C295.058 143.485 296.755 149.505 296.767 157.703L296.362 163.516H262.72C262.72 169.158 263.741 173.337 265.782 176.055C267.823 178.772 271.372 180.131 276.428 180.131C281.496 180.148 286.645 179.953 291.873 179.546ZM289.121 157.428C289.121 151.173 288.121 146.756 286.12 144.176C284.119 141.596 280.857 140.303 276.334 140.297C271.81 140.297 268.411 141.656 266.135 144.374C263.859 147.091 262.686 151.442 262.617 157.428H289.121Z" fill="#1C1E23"/>
      <path d="M307.43 186.495V119.417H315.075V186.495H307.43Z" fill="#1C1E23"/>
      <path d="M363.225 150.29V176.003C363.225 178.583 369.571 178.446 369.571 178.446L369.184 185.205C363.81 185.205 359.364 185.652 356.698 183.064C350.925 185.628 344.671 186.932 338.355 186.89C333.671 186.89 330.102 185.563 327.648 182.909C325.194 180.254 323.97 176.439 323.976 171.463C323.976 166.498 325.234 162.843 327.751 160.498C330.268 158.153 334.21 156.72 339.576 156.198L355.58 154.676V150.29C355.58 146.85 354.835 144.368 353.344 142.843C352.527 142.076 351.563 141.483 350.511 141.099C349.459 140.714 348.34 140.547 347.221 140.607H327.132V133.874H346.714C352.493 133.874 356.689 135.201 359.303 137.855C361.918 140.51 363.225 144.655 363.225 150.29ZM331.81 171.084C331.81 177.339 334.39 180.466 339.55 180.466C344.205 180.461 348.825 179.667 353.215 178.119L355.554 177.302V160.481L340.496 161.908C337.435 162.184 335.224 163.066 333.866 164.557C332.507 166.048 331.822 168.223 331.81 171.084Z" fill="#1C1E23"/>
      <path d="M393.074 140.71C385.661 140.71 381.955 143.29 381.955 148.45C381.955 150.835 382.815 152.518 384.535 153.498C386.255 154.478 390.127 155.499 396.153 156.559C402.207 157.62 406.49 159.099 409.001 160.997C411.512 162.894 412.77 166.46 412.776 171.695C412.776 176.935 411.093 180.776 407.728 183.218C404.363 185.661 399.452 186.885 392.997 186.89C388.783 186.89 374.714 185.325 374.714 185.325L375.127 178.703C383.21 179.477 389.049 180.054 392.997 180.054C396.944 180.054 399.945 179.426 402.018 178.17C404.09 176.915 405.122 174.808 405.122 171.85C405.122 168.891 404.262 166.888 402.474 165.83C400.685 164.772 396.832 163.774 390.855 162.82C384.879 161.865 380.622 160.472 378.111 158.64C375.6 156.809 374.335 153.403 374.335 148.441C374.335 143.479 376.055 139.842 379.59 137.434C383.124 135.026 387.459 133.865 392.687 133.865C396.832 133.865 411.219 134.923 411.219 134.923V141.587C403.626 141.252 397.417 140.71 393.074 140.71Z" fill="#1C1E23"/>
      <path d="M449.626 141.519H433.415V165.89C433.415 171.732 433.84 175.57 434.688 177.405C435.548 179.245 437.56 180.157 440.751 180.157L449.824 179.546L450.34 185.867C446.904 186.502 443.426 186.879 439.934 186.993C434.637 186.993 430.967 185.701 428.926 183.115C426.885 180.529 425.868 175.602 425.874 168.332V141.519H418.667V134.897H425.908V119.297H433.45V134.897H449.626V141.519Z" fill="#1C1E23"/>
      <path d="M460.254 128.387V119.512H467.899V128.387H460.254ZM460.254 186.495V134.897H467.899V186.495H460.254Z" fill="#1C1E23"/>
      <path d="M501.017 133.874C504.835 134.037 508.638 134.447 512.403 135.103L514.845 135.404L514.544 141.622C510.549 141.116 506.531 140.811 502.505 140.71C496.726 140.71 492.802 142.086 490.732 144.838C488.662 147.59 487.625 152.687 487.619 160.128C487.619 167.581 488.588 172.764 490.526 175.676C492.463 178.589 496.505 180.051 502.651 180.062L514.691 179.151L515 185.471C510.314 186.265 505.579 186.742 500.828 186.899C492.882 186.899 487.395 184.858 484.368 180.776C481.341 176.694 479.828 169.814 479.828 160.137C479.828 150.454 481.459 143.657 484.721 139.747C487.983 135.837 493.415 133.879 501.017 133.874Z" fill="#1C1E23"/>
    </g>
  </g>
</svg>
