<svg width="4186" height="1288" viewBox="0 0 4186 1288" fill="none" xmlns="http://www.w3.org/2000/svg">
<rect width="4186" height="1288" fill="white"/>
<rect x="53" y="112" width="1920" height="1080" rx="30" fill="#F5F7FA"/>
<g clip-path="url(#clip0_91_2)">
<path d="M1479.2 520.34C1479.2 520.34 1482.67 464.82 1472.43 425.76L1446.48 424.41L1443.19 520.34H1479.2Z" fill="#E6EBF2"/>
<path d="M1433.29 861.88C1433.29 861.88 1514.12 835.52 1560.26 793.61C1606.4 751.7 1606.29 698.52 1606.29 698.52L1600.98 640.98L1570.86 607.63C1570.86 607.63 1571.84 682.18 1563.03 701.16C1554.22 720.14 1462.26 794.5 1455.41 794.5C1448.56 794.5 1394.75 801.35 1394.75 801.35L1400.67 861.89H1433.29V861.88Z" fill="#E6EBF2"/>
<path d="M539.72 836.79C539.72 836.79 542.98 902.32 549.34 919.55C555.7 936.78 590.35 1068.98 802.21 1087.55C1014.07 1106.12 1134.42 999.32 1134.42 999.32C1134.42 999.32 1232.69 1043.65 1301.06 1019.18C1369.43 994.71 1432.73 952.5 1435.27 888.35L1429.9 816.04C1429.9 816.04 1413.42 836.47 1400.69 861.89C1387.96 887.31 1349.76 944.61 1306.47 952.88C1263.18 961.15 1147.44 944.6 1139.74 939.51C1132.04 934.42 1055.65 977.71 1036.55 986.62C1017.45 995.53 825.19 1066.83 719.51 1005.72C613.83 944.61 539.74 836.8 539.74 836.8L539.72 836.79Z" fill="#E6EBF2"/>
<path d="M419 635.23L420.72 692.03C420.83 695.84 421.32 699.62 422.24 703.32C427.23 723.35 449.07 779.89 539.72 810.11H559.27V753.97C559.27 753.97 469.83 726.96 462.14 692.64C454.45 658.31 432.94 631.31 432.94 631.31L419.01 635.24L419 635.23Z" fill="#E6EBF2"/>
<path d="M588.22 469.49C588.22 469.49 427.86 498.84 419.27 629.53C413.3 720.39 506.92 758.97 545.1 771.29C545.1 771.29 479.78 1008.35 801.32 1047.59C1032.33 1075.79 1132.53 950.84 1132.53 950.84C1132.53 950.84 1271.07 1002.44 1356.45 947.8C1441.83 893.15 1429.88 816.03 1429.88 816.03C1429.88 816.03 1557.95 778.74 1593.82 684.82C1629.68 590.9 1522.1 537.64 1464.04 513.91C1464.04 513.91 1527.37 350.22 1337.67 275.82C1074.92 172.78 890.06 332.97 890.06 332.97C890.06 332.97 804.64 274.63 679.73 326.82C567.44 373.74 588.22 469.49 588.22 469.49Z" fill="#F5F7FA" stroke="#1C1E23" stroke-width="2" stroke-miterlimit="10"/>
<mask id="mask0_91_2" style="mask-type:luminance" maskUnits="userSpaceOnUse" x="631" y="335" width="239" height="158">
<path d="M633.28 461.5L806.76 492.43L869.11 358.83C869.11 358.83 792.94 312.83 706.39 350.69C615.03 390.65 633.29 461.5 633.29 461.5H633.28Z" fill="white"/>
</mask>
<g mask="url(#mask0_91_2)">
<path d="M641.46 463.97C641.46 463.97 694 351.61 851.53 398.42L880.72 352.5C880.72 352.5 779.51 309.07 712.88 340.18C646.25 371.29 589.96 411.94 619.79 451.18C626.89 460.51 626.89 468.65 626.89 468.65L641.46 463.97Z" fill="#E6EBF2"/>
</g>
<path d="M633.28 461.5L806.76 492.43L869.11 358.83C869.11 358.83 792.94 312.83 706.39 350.69C615.03 390.65 633.29 461.5 633.29 461.5H633.28Z" stroke="#1C1E23" stroke-width="2" stroke-miterlimit="10"/>
<path d="M641.06 462.89C641.06 462.89 693.6 350.53 851.13 397.34" stroke="#1C1E23" stroke-width="2" stroke-miterlimit="10"/>
<mask id="mask1_91_2" style="mask-type:luminance" maskUnits="userSpaceOnUse" x="462" y="492" width="382" height="250">
<path d="M843.07 594.67L805.37 525.73L611.69 492.43C611.69 492.43 448.81 532.02 463.01 640.25C474.23 725.77 569.09 741.68 569.09 741.68L843.07 594.67Z" fill="white"/>
</mask>
<g mask="url(#mask1_91_2)">
<path d="M469.23 659.01C469.23 659.01 505.26 552.38 628.42 541.39L813.34 573.48L830.15 604.28L863.19 587.22L809.28 493.75L660.08 485.33L524.68 493.75L442.01 636.54L469.23 659.01Z" fill="#E6EBF2"/>
</g>
<path d="M843.07 594.67L805.37 525.73L611.69 492.43C611.69 492.43 448.81 532.02 463.01 640.25C474.23 725.77 569.09 741.68 569.09 741.68L843.07 594.67Z" stroke="#1C1E23" stroke-width="2" stroke-miterlimit="10"/>
<path d="M466.7 657.7C466.7 657.7 502.73 551.07 625.89 540.08L810.81 572.17L827.62 602.97" stroke="#1C1E23" stroke-width="2" stroke-miterlimit="10"/>
<mask id="mask2_91_2" style="mask-type:luminance" maskUnits="userSpaceOnUse" x="847" y="272" width="585" height="393">
<path d="M891.07 586.15L847.98 508.76L914.93 355.21C914.93 355.21 1055.65 252.63 1212.01 276.09C1368.37 299.54 1461.1 404.09 1422.89 509.07L1137.32 664.73L891.08 586.16L891.07 586.15Z" fill="white"/>
</mask>
<g mask="url(#mask2_91_2)">
<path d="M862.76 531.54L921.62 400.4C921.62 400.4 1041.88 306.9 1198.51 321.52C1340.02 334.72 1409.42 401.41 1433.56 462.88L1462.31 325.76L1271.9 214L931.76 236.28L767.18 485.37L862.76 531.54Z" fill="#E6EBF2"/>
</g>
<path d="M891.07 586.15L847.98 508.76L914.93 355.21C914.93 355.21 1055.65 252.63 1212.01 276.09C1368.37 299.54 1461.1 404.09 1422.89 509.07L1137.32 664.73L891.08 586.16L891.07 586.15Z" stroke="#1C1E23" stroke-width="2" stroke-miterlimit="10"/>
<mask id="mask3_91_2" style="mask-type:luminance" maskUnits="userSpaceOnUse" x="584" y="613" width="586" height="401">
<path d="M593.28 769.55L869.11 613.19L1121.95 701.15L1169.57 769.54L1108.14 925.9C1108.14 925.9 930.44 1059.5 739.58 996.64C585.5 945.89 568.7 841.02 593.27 769.55H593.28Z" fill="white"/>
</mask>
<g mask="url(#mask3_91_2)">
<path d="M587.34 856.58L602.07 808.08L875.68 663.19L1125.99 744.61L1158.43 799.09L1186.38 707.26L1136.99 634.59L870.09 551.73L594.91 696.42L557.26 756.01L587.34 856.58Z" fill="#E6EBF2"/>
</g>
<path d="M593.28 769.55L869.11 613.19L1121.95 701.15L1169.57 769.54L1108.14 925.9C1108.14 925.9 930.44 1059.5 739.58 996.64C585.5 945.89 568.7 841.02 593.27 769.55H593.28Z" stroke="#1C1E23" stroke-width="2" stroke-miterlimit="10"/>
<mask id="mask4_91_2" style="mask-type:luminance" maskUnits="userSpaceOnUse" x="1169" y="542" width="385" height="248">
<path d="M1209.77 755.03L1169.56 694.33L1443.19 542.83C1443.19 542.83 1595.97 597.89 1542.59 694.33C1489.2 790.77 1402.99 789.65 1402.99 789.65L1209.78 755.03H1209.77Z" fill="white"/>
</mask>
<g mask="url(#mask4_91_2)">
<path d="M1189.12 723.85L1446.48 585.9C1446.48 585.9 1524.01 609.27 1553.09 664.72L1574.03 617.05L1502.36 548.94L1435.27 525.72L1169.57 670.53L1156.24 680.77L1180.03 728.15L1189.12 723.85Z" fill="#E6EBF2"/>
<path d="M1189.12 723.85L1446.48 585.9C1446.48 585.9 1524.01 609.27 1553.09 664.72" stroke="#1C1E23" stroke-width="2" stroke-miterlimit="10"/>
</g>
<path d="M1209.77 755.03L1169.56 694.33L1443.19 542.83C1443.19 542.83 1595.97 597.89 1542.59 694.33C1489.2 790.77 1402.99 789.65 1402.99 789.65L1209.78 755.03H1209.77Z" stroke="#1C1E23" stroke-width="2" stroke-miterlimit="10"/>
<mask id="mask5_91_2" style="mask-type:luminance" maskUnits="userSpaceOnUse" x="1156" y="789" width="231" height="158">
<path d="M1209.77 789.65L1381.76 819.63L1386.23 862.24C1386.23 862.24 1324.13 994.43 1156.24 927.35L1209.77 789.64V789.65Z" fill="white"/>
</mask>
<g mask="url(#mask5_91_2)">
<path d="M1169.82 931.75L1211.62 837.69L1386.49 864.22L1392.32 863.44L1392.1 804.64L1196.37 771.26L1151.86 861.28L1144.86 936.1L1165.46 939.81L1169.82 931.75Z" fill="#E6EBF2"/>
</g>
<path d="M1209.77 789.65L1381.76 819.63L1386.23 862.24C1386.23 862.24 1324.13 994.43 1156.24 927.35L1209.77 789.64V789.65Z" stroke="#1C1E23" stroke-width="2" stroke-miterlimit="10"/>
<path d="M1386.23 864.82L1211.37 838.29L1169.56 932.35" stroke="#1C1E23" stroke-width="2" stroke-miterlimit="10"/>
<path d="M587.27 855.53L602 807.03L875.62 662.15L1125.92 743.57L1158.37 798.05" stroke="#1C1E23" stroke-width="2" stroke-miterlimit="10"/>
<path d="M860.66 531.54L919.52 400.4C919.52 400.4 1039.78 306.9 1196.41 321.52C1337.92 334.72 1407.32 401.41 1431.46 462.88" stroke="#1C1E23" stroke-width="2" stroke-miterlimit="10"/>
<path d="M419 635.23L420.72 692.03C420.83 695.84 421.32 699.62 422.24 703.32C427.23 723.35 449.07 779.89 539.72 810.11" stroke="#1C1E23" stroke-width="2" stroke-miterlimit="10"/>
<path d="M539.72 836.79C539.72 836.79 542.98 902.32 549.34 919.55C555.7 936.78 590.35 1068.98 802.21 1087.55C1014.07 1106.12 1134.42 999.32 1134.42 999.32C1134.42 999.32 1232.69 1043.65 1301.06 1019.18C1369.43 994.71 1432.73 952.5 1435.27 888.35L1429.9 816.04" stroke="#1C1E23" stroke-width="2" stroke-miterlimit="10"/>
<path d="M1134.41 999.32L1130.67 952.87" stroke="#1C1E23" stroke-width="2" stroke-miterlimit="10"/>
<path d="M1433.29 861.88C1433.29 861.88 1514.12 835.52 1560.26 793.61C1606.4 751.7 1606.29 698.52 1606.29 698.52L1600.98 640.98" stroke="#1C1E23" stroke-width="2" stroke-miterlimit="10"/>
<path d="M1479.2 520.34C1479.2 520.34 1482.67 464.82 1472.43 425.76" stroke="#1C1E23" stroke-width="2" stroke-miterlimit="10"/>
<path d="M611.7 492.43L625.89 540.07" stroke="#1C1E23" stroke-width="2" stroke-miterlimit="10"/>
<path d="M805.38 525.73L810.81 572.16" stroke="#1C1E23" stroke-width="2" stroke-miterlimit="10"/>
<path d="M602 807.03L593.28 769.55" stroke="#1C1E23" stroke-width="2" stroke-miterlimit="10"/>
<path d="M875.62 662.15L869.11 613.19" stroke="#1C1E23" stroke-width="2" stroke-miterlimit="10"/>
<path d="M1125.92 743.57L1121.95 701.16" stroke="#1C1E23" stroke-width="2" stroke-miterlimit="10"/>
<path d="M919.52 400.41L914.92 355.2" stroke="#1C1E23" stroke-width="2" stroke-miterlimit="10"/>
<path d="M1211.37 838.29L1209.77 789.65" stroke="#1C1E23" stroke-width="2" stroke-miterlimit="10"/>
<path d="M1446.48 585.9L1443.19 542.83" stroke="#1C1E23" stroke-width="2" stroke-miterlimit="10"/>
</g>
<g clip-path="url(#clip1_91_2)">
<rect width="1920" height="1080" transform="translate(2201 112)" fill="white"/>
<g clip-path="url(#clip2_91_2)">
<path d="M4121 112H2201V1192H4121V112Z" fill="#0B64DD" stroke="#1C1E23" stroke-width="2" stroke-miterlimit="10"/>
<path d="M3627.55 506.86C3627.55 506.86 3631.02 451.34 3620.78 412.28L3594.83 410.93L3591.54 506.86H3627.55Z" fill="#0B4FAC"/>
<path d="M3581.65 848.39C3581.65 848.39 3662.48 822.03 3708.62 780.12C3754.76 738.21 3754.65 685.03 3754.65 685.03L3749.34 627.49L3719.22 594.14C3719.22 594.14 3720.2 668.69 3711.39 687.67C3702.58 706.65 3610.62 781.01 3603.77 781.01C3596.92 781.01 3543.11 787.86 3543.11 787.86L3549.03 848.4H3581.65V848.39Z" fill="#0B4FAC"/>
<path d="M2688.07 823.31C2688.07 823.31 2691.33 888.84 2697.69 906.07C2704.05 923.3 2738.7 1055.5 2950.56 1074.07C3162.42 1092.64 3282.77 985.84 3282.77 985.84C3282.77 985.84 3381.04 1030.17 3449.41 1005.7C3517.78 981.23 3581.08 939.02 3583.62 874.87L3578.25 802.56C3578.25 802.56 3561.77 822.99 3549.04 848.41C3536.31 873.83 3498.11 931.13 3454.82 939.4C3411.53 947.67 3295.79 931.12 3288.09 926.03C3280.39 920.94 3204 964.23 3184.9 973.14C3165.8 982.05 2973.54 1053.35 2867.86 992.24C2762.18 931.12 2688.09 823.32 2688.09 823.32L2688.07 823.31Z" fill="#0B4FAC"/>
<path d="M2567.35 621.74L2569.07 678.54C2569.18 682.35 2569.67 686.13 2570.59 689.83C2575.58 709.86 2597.42 766.4 2688.07 796.62H2707.62V740.48C2707.62 740.48 2618.18 713.47 2610.49 679.15C2602.8 644.82 2581.29 617.82 2581.29 617.82L2567.36 621.75L2567.35 621.74Z" fill="#0B4FAC"/>
<path d="M2736.57 456.01C2736.57 456.01 2576.21 485.36 2567.62 616.05C2561.65 706.91 2655.27 745.49 2693.45 757.81C2693.45 757.81 2628.13 994.87 2949.67 1034.11C3180.68 1062.31 3280.88 937.36 3280.88 937.36C3280.88 937.36 3419.42 988.96 3504.8 934.32C3590.18 879.67 3578.23 802.55 3578.23 802.55C3578.23 802.55 3706.3 765.26 3742.17 671.34C3778.03 577.42 3670.45 524.16 3612.39 500.43C3612.39 500.43 3675.72 336.74 3486.02 262.34C3223.27 159.3 3038.41 319.49 3038.41 319.49C3038.41 319.49 2952.99 261.15 2828.08 313.34C2715.79 360.26 2736.57 456.01 2736.57 456.01Z" fill="#0B64DD" stroke="#1C1E23" stroke-width="2" stroke-miterlimit="10"/>
<mask id="mask6_91_2" style="mask-type:luminance" maskUnits="userSpaceOnUse" x="2780" y="322" width="238" height="157">
<path d="M2781.63 448.01L2955.11 478.94L3017.46 345.34C3017.46 345.34 2941.29 299.34 2854.74 337.2C2763.38 377.16 2781.64 448.01 2781.64 448.01H2781.63Z" fill="white"/>
</mask>
<g mask="url(#mask6_91_2)">
<path d="M2789.81 450.49C2789.81 450.49 2842.35 338.13 2999.88 384.94L3029.07 339.02C3029.07 339.02 2927.86 295.59 2861.23 326.7C2794.6 357.81 2738.31 398.46 2768.14 437.7C2775.24 447.03 2775.24 455.17 2775.24 455.17L2789.81 450.49Z" fill="#0B4FAC"/>
</g>
<path d="M2781.63 448.01L2955.11 478.94L3017.46 345.34C3017.46 345.34 2941.29 299.34 2854.74 337.2C2763.38 377.16 2781.64 448.01 2781.64 448.01H2781.63Z" stroke="#1C1E23" stroke-width="2" stroke-miterlimit="10"/>
<path d="M2789.41 449.4C2789.41 449.4 2841.95 337.04 2999.48 383.85" stroke="#1C1E23" stroke-width="2" stroke-miterlimit="10"/>
<mask id="mask7_91_2" style="mask-type:luminance" maskUnits="userSpaceOnUse" x="2610" y="478" width="382" height="251">
<path d="M2991.43 581.19L2953.73 512.25L2760.05 478.95C2760.05 478.95 2597.17 518.54 2611.37 626.77C2622.59 712.29 2717.45 728.2 2717.45 728.2L2991.43 581.19Z" fill="white"/>
</mask>
<g mask="url(#mask7_91_2)">
<path d="M2617.58 645.52C2617.58 645.52 2653.61 538.89 2776.77 527.9L2961.69 559.99L2978.5 590.79L3011.54 573.73L2957.63 480.26L2808.43 471.84L2673.03 480.26L2590.34 623.06L2617.56 645.53L2617.58 645.52Z" fill="#0B4FAC"/>
</g>
<path d="M2991.43 581.19L2953.73 512.25L2760.05 478.95C2760.05 478.95 2597.17 518.54 2611.37 626.77C2622.59 712.29 2717.45 728.2 2717.45 728.2L2991.43 581.19Z" stroke="#1C1E23" stroke-width="2" stroke-miterlimit="10"/>
<path d="M2615.05 644.21C2615.05 644.21 2651.08 537.58 2774.24 526.59L2959.16 558.68L2975.97 589.48" stroke="#1C1E23" stroke-width="2" stroke-miterlimit="10"/>
<mask id="mask8_91_2" style="mask-type:luminance" maskUnits="userSpaceOnUse" x="2996" y="259" width="584" height="393">
<path d="M3039.42 572.67L2996.33 495.28L3063.28 341.73C3063.28 341.73 3204 239.15 3360.36 262.61C3516.72 286.06 3609.45 390.61 3571.24 495.59L3285.67 651.25L3039.43 572.68L3039.42 572.67Z" fill="white"/>
</mask>
<g mask="url(#mask8_91_2)">
<path d="M3011.11 518.06L3069.97 386.92C3069.97 386.92 3190.23 293.42 3346.86 308.04C3488.37 321.24 3557.77 387.93 3581.91 449.4L3610.66 312.28L3420.26 200.52L3080.12 222.8L2915.54 471.89L3011.12 518.06H3011.11Z" fill="#0B4FAC"/>
</g>
<path d="M3039.42 572.67L2996.33 495.28L3063.28 341.73C3063.28 341.73 3204 239.15 3360.36 262.61C3516.72 286.06 3609.45 390.61 3571.24 495.59L3285.67 651.25L3039.43 572.68L3039.42 572.67Z" stroke="#1C1E23" stroke-width="2" stroke-miterlimit="10"/>
<mask id="mask9_91_2" style="mask-type:luminance" maskUnits="userSpaceOnUse" x="2732" y="599" width="586" height="401">
<path d="M2741.63 756.07L3017.46 599.71L3270.3 687.67L3317.92 756.06L3256.49 912.42C3256.49 912.42 3078.79 1046.02 2887.93 983.16C2733.85 932.41 2717.05 827.54 2741.62 756.07H2741.63Z" fill="white"/>
</mask>
<g mask="url(#mask9_91_2)">
<path d="M2735.69 843.09L2750.42 794.59L3024.04 649.71L3274.34 731.13L3306.79 785.6L3334.74 693.78L3285.34 621.11L3018.44 538.25L2743.26 682.94L2705.61 742.53L2735.69 843.09Z" fill="#0B4FAC"/>
</g>
<path d="M2741.63 756.07L3017.46 599.71L3270.3 687.67L3317.92 756.06L3256.49 912.42C3256.49 912.42 3078.79 1046.02 2887.93 983.16C2733.85 932.41 2717.05 827.54 2741.62 756.07H2741.63Z" stroke="#1C1E23" stroke-width="2" stroke-miterlimit="10"/>
<mask id="mask10_91_2" style="mask-type:luminance" maskUnits="userSpaceOnUse" x="3317" y="529" width="386" height="248">
<path d="M3358.12 741.55L3317.91 680.85L3591.54 529.35C3591.54 529.35 3744.32 584.41 3690.94 680.85C3637.56 777.29 3551.34 776.17 3551.34 776.17L3358.13 741.55H3358.12Z" fill="white"/>
</mask>
<g mask="url(#mask10_91_2)">
<path d="M3337.47 710.37L3594.83 572.42C3594.83 572.42 3672.36 595.79 3701.44 651.24L3722.38 603.57L3650.71 535.46L3583.62 512.24L3317.92 657.05L3304.59 667.29L3328.38 714.67L3337.47 710.37Z" fill="#0B4FAC"/>
<path d="M3337.47 710.37L3594.83 572.42C3594.83 572.42 3672.36 595.79 3701.44 651.24" stroke="#1C1E23" stroke-width="2" stroke-miterlimit="10"/>
</g>
<path d="M3358.12 741.55L3317.91 680.85L3591.54 529.35C3591.54 529.35 3744.32 584.41 3690.94 680.85C3637.56 777.29 3551.34 776.17 3551.34 776.17L3358.13 741.55H3358.12Z" stroke="#1C1E23" stroke-width="2" stroke-miterlimit="10"/>
<mask id="mask11_91_2" style="mask-type:luminance" maskUnits="userSpaceOnUse" x="3304" y="776" width="231" height="157">
<path d="M3358.12 776.17L3530.11 806.15L3534.58 848.76C3534.58 848.76 3472.48 980.95 3304.59 913.87L3358.12 776.16V776.17Z" fill="white"/>
</mask>
<g mask="url(#mask11_91_2)">
<path d="M3318.17 918.27L3359.97 824.21L3534.84 850.74L3540.67 849.95L3540.46 791.16L3344.72 757.78L3300.21 847.8L3293.21 922.61L3313.81 926.32L3318.17 918.27Z" fill="#0B4FAC"/>
</g>
<path d="M3358.12 776.17L3530.11 806.15L3534.58 848.76C3534.58 848.76 3472.48 980.95 3304.59 913.87L3358.12 776.16V776.17Z" stroke="#1C1E23" stroke-width="2" stroke-miterlimit="10"/>
<path d="M3534.58 851.34L3359.72 824.81L3317.92 918.87" stroke="#1C1E23" stroke-width="2" stroke-miterlimit="10"/>
<path d="M2735.63 842.05L2750.36 793.55L3023.97 648.67L3274.27 730.09L3306.72 784.56" stroke="#1C1E23" stroke-width="2" stroke-miterlimit="10"/>
<path d="M3009.02 518.06L3067.88 386.92C3067.88 386.92 3188.14 293.42 3344.77 308.04C3486.28 321.24 3555.68 387.93 3579.82 449.4" stroke="#1C1E23" stroke-width="2" stroke-miterlimit="10"/>
<path d="M2567.35 621.74L2569.07 678.54C2569.18 682.35 2569.67 686.13 2570.59 689.83C2575.58 709.86 2597.42 766.4 2688.07 796.62" stroke="#1C1E23" stroke-width="2" stroke-miterlimit="10"/>
<path d="M2688.07 823.31C2688.07 823.31 2691.33 888.84 2697.69 906.07C2704.05 923.3 2738.7 1055.5 2950.56 1074.07C3162.42 1092.64 3282.77 985.84 3282.77 985.84C3282.77 985.84 3381.04 1030.17 3449.41 1005.7C3517.78 981.23 3581.08 939.02 3583.62 874.87L3578.25 802.56" stroke="#1C1E23" stroke-width="2" stroke-miterlimit="10"/>
<path d="M3282.77 985.83L3279.02 939.39" stroke="#1C1E23" stroke-width="2" stroke-miterlimit="10"/>
<path d="M3581.65 848.39C3581.65 848.39 3662.48 822.03 3708.62 780.12C3754.76 738.21 3754.65 685.03 3754.65 685.03L3749.34 627.49" stroke="#1C1E23" stroke-width="2" stroke-miterlimit="10"/>
<path d="M3627.55 506.86C3627.55 506.86 3631.02 451.34 3620.78 412.28" stroke="#1C1E23" stroke-width="2" stroke-miterlimit="10"/>
<path d="M2760.05 478.94L2774.24 526.59" stroke="#1C1E23" stroke-width="2" stroke-miterlimit="10"/>
<path d="M2953.73 512.24L2959.17 558.68" stroke="#1C1E23" stroke-width="2" stroke-miterlimit="10"/>
<path d="M2750.36 793.55L2741.63 756.07" stroke="#1C1E23" stroke-width="2" stroke-miterlimit="10"/>
<path d="M3023.97 648.67L3017.46 599.71" stroke="#1C1E23" stroke-width="2" stroke-miterlimit="10"/>
<path d="M3274.27 730.09L3270.3 687.67" stroke="#1C1E23" stroke-width="2" stroke-miterlimit="10"/>
<path d="M3067.87 386.92L3063.28 341.72" stroke="#1C1E23" stroke-width="2" stroke-miterlimit="10"/>
<path d="M3359.72 824.81L3358.12 776.17" stroke="#1C1E23" stroke-width="2" stroke-miterlimit="10"/>
<path d="M3594.83 572.42L3591.54 529.35" stroke="#1C1E23" stroke-width="2" stroke-miterlimit="10"/>
</g>
</g>
<defs>
<clipPath id="clip0_91_2">
<rect width="1189.29" height="876.71" fill="white" transform="translate(418 214)"/>
</clipPath>
<clipPath id="clip1_91_2">
<rect width="1920" height="1080" fill="white" transform="translate(2201 112)"/>
</clipPath>
<clipPath id="clip2_91_2">
<rect width="1922" height="1082" fill="white" transform="translate(2200 111)"/>
</clipPath>
</defs>
</svg>
